<svg width="1920" height="1080" viewBox="0 0 1920 1080" fill="none" xmlns="http://www.w3.org/2000/svg">
<path opacity="0.15" d="M690.5 449.5V269.63C569.45 269.54 508.92 269.5 508.92 269.5C408.36 269.5 330.5 351.65 330.5 449.5M690.5 449.5H330.5M690.5 449.5C592.19 449.5 510.5 368.82 510.5 269.08C510.5 269.08 510.5 209.22 510.5 89.5L690.5 89.65V449.5ZM330.5 449.5H-29.5C-29.5 351.14 50.55 269.5 150.33 269.5H330.5V449.5ZM1230.5 449.5V629.5H1050.5M1230.5 449.5H870.5M1230.5 449.5H1050.5M1230.5 449.5C1230.5 351.21 1148.81 269.5 1050.5 269.5V449.5M870.5 449.5C870.5 547.25 950.81 629.5 1050.5 629.5M870.5 449.5V89.5M870.5 449.5H1050.5M1050.5 629.5H870.5C870.5 870.13 870.5 989.5 870.5 989.5C968.97 989.5 1050.5 911.28 1050.5 810.82C1050.5 810.82 1050.5 750.38 1050.5 629.5ZM1050.5 629.5C1148.81 629.5 1230.5 710.98 1230.5 809.5M1950.5 629.5V809.5H1590.5C1590.5 711.75 1668 629.5 1768.24 629.5H1950.5ZM1950.5 629.5C1950.5 390.17 1950.5 269.5 1950.5 269.5C2048.81 269.5 2130.5 347.18 2130.5 446.43C2130.5 446.43 2130.5 508.72 2130.5 629.5M1950.5 629.5H2130.5M1950.5 629.5V989.5C2048.75 989.5 2130.5 911.82 2130.5 811.14C2130.5 811.14 2130.23 750.93 2130.5 629.5M690.5 989.5H510.5V629.5C610.47 629.5 690.5 711.06 690.5 811.01V989.5ZM690.5 989.5C690.5 989.5 690.5 1112.19 690.5 1349.5M690.5 989.5C591.64 989.5 510.5 1070.14 510.5 1168.98V1349.5H690.5M2130.5 -90.5C2130.5 8.36 2049.4 89.5 1950 89.5H1770.5V-90.5M2130.5 -90.5H1770.5M2130.5 -90.5V-270.5H1950.5C1950.5 -172.57 2032.03 -90.5 2130.5 -90.5ZM1770.5 -90.5V449.5M1770.5 -90.5H1590.5M690.5 1349.5V1169.5H870.5C870.5 1267.81 788.43 1349.5 690.5 1349.5ZM1590.5 629.5C1492.19 629.5 1410.5 549.23 1410.5 449.87V269.5M1590.5 629.5V269.5M1590.5 629.5H1410.5C1410.5 870.13 1410.5 989.5 1410.5 989.5C1508.97 989.5 1590.5 911.28 1590.5 810.82C1590.5 810.82 1590.5 750.38 1590.5 629.5ZM1590.5 269.5H1410.5M1590.5 269.5C1590.5 169.53 1508.43 89.5 1410.5 89.5V269.5M1410.5 269.5L1410.2 -270.5H1230.5V269.5M1410.5 269.5H1230.5M1410.5 269.5C1311.09 269.5 1230.5 189.41 1230.5 90C1230.5 -9.41 1311.09 -90.5 1410.5 -90.5M1410.5 269.5V-90.5M1770.5 449.52L1770.74 630.94C1770.79 689.6 1770.79 809.62 1770.74 989.52H1950.5M1950.5 989.52C1950.5 749.63 1950.5 630.94 1950.5 630.94C1950.5 531.48 1869.05 449.52 1770.74 449.52M1950.5 989.52H1770.3C1712.13 989.47 1592.2 989.37 1410.5 989.22V810.36C1649.18 810.36 1769.92 809.52 1769.92 809.52C1868.54 809.52 1950.5 891.54 1950.5 989.52ZM1410.5 1349.52C1312.06 1349.52 1230.5 1268.39 1230.5 1169.92C1230.5 1169.92 1230.5 1047.16 1230.5 809.52H1410.2C1410.35 987.77 1410.45 1109.87 1410.5 1167.95C1410.5 1289 1410.5 1349.52 1410.5 1349.52ZM1410.5 1349.52V1169.82C1229.91 1169.67 1110.52 1169.57 1052.36 1169.52H870.51C870.51 1267.47 951.77 1349.52 1050.4 1349.52H1410.51H1410.5ZM1410.5 -90.5H1590.5M1410.5 -90.5C1410.5 -188.43 1492.03 -270.5 1590.5 -270.5V-90.5M1590.5 -90.5V449.42L1770.5 449.5M870.5 -90.5V-270.5H690.5C690.5 -172.57 772.19 -90.5 870.5 -90.5ZM870.5 -90.5H1050.5M870.5 -90.5C870.5 7.25 952.19 89.5 1050.5 89.5M330.5 -90.5H510.5V-270.5C412.74 -270.5 330.5 -188.43 330.5 -90.5ZM330.5 -90.5L330.63 89.5H870.5M330.5 -90.5H689.83C789.61 -90.5 870.5 -8.21 870.5 89.5M1050.5 449.5V89.5M1050.5 -90.5V-270.5C1148.25 -270.5 1230.5 -188.81 1230.5 -90.5H1050.5ZM1050.5 -90.5V89.5M1050.5 89.5H870.5M1770.5 1169.5V1349.5H1590.5C1590.5 1230.3 1590.5 1169.5 1590.5 1169.5H1770.5ZM1770.5 1169.5C1770.5 1070.09 1850.59 989.5 1950 989.5C2049.41 989.5 2130.5 1070.09 2130.5 1169.5H1770.5ZM1230.5 269.5H1410.2L1410.5 809.5L1230.5 809.42C1230.5 450.81 1230.5 269.5 1230.5 269.5ZM1770.5 449.5L1590.5 448.38C1590.83 329.66 1591 269.5 1591 269.5C1690.22 269.5 1770.5 351.7 1770.5 449.5ZM1230.5 809.5H1050.5C1050.5 908.59 1132.19 989.5 1230.5 989.5V809.5ZM-207.42 1169.5V1349.5H152.58C152.58 1251.47 72.27 1169.5 -27.42 1169.5H-207.42ZM151 989.5C51.6 989.5 -29.5 1070.64 -29.5 1169.5H330.5V989.5H151ZM1590.5 -87.39C1590.5 11.86 1672.19 89.54 1770.5 89.54C1770.5 89.54 1770.5 -31.13 1770.5 -270.46H1590.5C1590.5 -149.68 1590.5 -87.39 1590.5 -87.39ZM150.5 630.06C150.5 729.87 231.84 809.51 330.5 809.51V449.51H150.5V630.06ZM1230.5 269.51V89.51C1143.86 89.58 1083.84 89.67 1050.45 89.79C932.57 90.21 870.5 89.51 870.5 89.51C870.5 187.67 950.92 269.51 1050.45 269.51H1230.5ZM2130.5 269.51V89.51C2043.86 89.58 1983.84 89.67 1950.45 89.79C1832.57 90.21 1770.5 89.51 1770.5 89.51C1770.5 187.67 1850.92 269.51 1950.45 269.51C1950.45 269.51 2010.47 269.51 2130.5 269.51ZM690.5 269.51V89.51C603.1 89.58 542.56 89.67 508.87 89.79C389.96 90.21 330.5 89.51 330.5 89.51C330.5 187.67 408.47 269.51 508.87 269.51H690.5ZM1410.5 630.51C1410.5 531.28 1328.94 449.51 1230.5 449.51V632.49C1230.55 691.02 1230.55 810.03 1230.5 989.51H1410.5V630.51ZM150.5 630.01C150.5 531.06 68.94 449.52 -29.5 449.52V631.99C-29.45 690.35 -29.45 809.53 -29.5 989.52H150.5C150.93 749.85 150.5 630.01 150.5 630.01ZM330.31 90.01C330.31 -8.93999 248.83 -90.48 150.5 -90.48V91.99C150.55 150.35 150.55 269.53 150.5 449.52H330.31C330.74 209.85 330.31 90.01 330.31 90.01ZM510.31 809.52H330.5C330.55 989.51 330.55 1108.69 330.5 1167.05C330.5 1288.69 330.5 1349.52 330.5 1349.52C428.83 1349.52 510.31 1267.98 510.31 1169.03C510.31 1169.03 510.74 1049.19 510.31 809.52ZM870.31 630.01C870.31 531.06 788.83 449.52 690.5 449.52C690.5 449.52 690.5 510.34 690.5 631.99C690.55 690.35 690.55 809.53 690.5 989.52H870.31C870.74 749.85 870.31 630.01 870.31 630.01ZM-208.65 629.52C-307.92 629.52 -389.5 711.52 -389.5 809.52C-389.5 809.52 -328.56 809.25 -206.67 808.72C-148.12 808.67 -29.06 808.94 150.5 809.52L150.16 629.52H-208.65ZM1229.92 1169.52C1328.54 1169.52 1410.5 1087.5 1410.5 989.52H1230.3C1172.13 989.57 1052.2 989.67 870.5 989.82V1168.68C1109.18 1168.68 1229.92 1169.52 1229.92 1169.52ZM1230.5 989.52V1169.22C1590.5 1169.42 1770.5 1169.52 1770.5 1169.52C1770.5 1071.54 1689.52 989.52 1590.39 989.52H1230.5ZM2310.5 1349.52V1169.82C2129.91 1169.67 2010.52 1169.57 1952.36 1169.52C1831.12 1169.52 1770.51 1169.52 1770.51 1169.52C1770.51 1267.47 1851.77 1349.52 1950.4 1349.52H2310.51H2310.5ZM150.5 -90.5V-270.5H-29.5C-29.5 -172.21 52.19 -90.5 150.5 -90.5ZM-209.4 89.5H330.6V-90.5H-209.33L-209.41 89.5H-209.4ZM690.6 89.58V-270.5H510.6V89.53L690.6 89.58ZM330.6 629.5H870.6V449.5H330.67L330.59 629.5H330.6ZM330.5 809.5C330.5 809.5 270.5 809.87 150.5 810.6V989.5C249.16 989.5 330.5 907.7 330.5 809.5Z" stroke="#A7D4F7" stroke-width="3"/>
</svg>
